<mxfile host="Electron" modified="2023-09-19T06:11:18.784Z" agent="Mozilla/5.0 (Windows NT 10.0; Win64; x64) AppleWebKit/537.36 (KHTML, like Gecko) draw.io/21.2.8 Chrome/112.0.5615.165 Electron/24.2.0 Safari/537.36" etag="l9dESuiDHvNdrdC0rr10" version="21.2.8" type="device">
  <diagram name="第 1 页" id="hZHNZMP5M_iRD0ooPnMY">
    <mxGraphModel dx="1702" dy="799" grid="1" gridSize="10" guides="1" tooltips="1" connect="1" arrows="1" fold="1" page="0" pageScale="1" pageWidth="827" pageHeight="1169" math="0" shadow="0">
      <root>
        <mxCell id="0" />
        <mxCell id="1" parent="0" />
        <mxCell id="kv2lXza8o9tSoSRn82gL-12" value="" style="rounded=1;whiteSpace=wrap;html=1;fontSize=16;fillColor=#dae8fc;strokeColor=#6c8ebf;" vertex="1" parent="1">
          <mxGeometry x="-110" y="160" width="350" height="80" as="geometry" />
        </mxCell>
        <mxCell id="kv2lXza8o9tSoSRn82gL-4" value="" style="rounded=1;whiteSpace=wrap;html=1;fontSize=16;fillColor=#d5e8d4;strokeColor=#82b366;" vertex="1" parent="1">
          <mxGeometry x="-110" y="320" width="350" height="80" as="geometry" />
        </mxCell>
        <mxCell id="kv2lXza8o9tSoSRn82gL-1" value="" style="rounded=1;whiteSpace=wrap;html=1;fontSize=16;fillColor=#bac8d3;strokeColor=#23445d;" vertex="1" parent="1">
          <mxGeometry x="-110" y="480" width="350" height="80" as="geometry" />
        </mxCell>
        <mxCell id="kv2lXza8o9tSoSRn82gL-2" value="" style="sketch=0;pointerEvents=1;shadow=0;dashed=0;html=1;strokeColor=none;fillColor=#505050;labelPosition=center;verticalLabelPosition=bottom;verticalAlign=top;outlineConnect=0;align=center;shape=mxgraph.office.devices.hard_disk;fontSize=16;" vertex="1" parent="1">
          <mxGeometry x="-82.89" y="489.5" width="30" height="40.5" as="geometry" />
        </mxCell>
        <mxCell id="kv2lXza8o9tSoSRn82gL-3" value="" style="sketch=0;pointerEvents=1;shadow=0;dashed=0;html=1;strokeColor=none;fillColor=#005F4B;labelPosition=center;verticalLabelPosition=bottom;verticalAlign=top;align=center;outlineConnect=0;shape=mxgraph.veeam2.ram;fontSize=16;" vertex="1" parent="1">
          <mxGeometry x="-94.21" y="330" width="84.21" height="40" as="geometry" />
        </mxCell>
        <mxCell id="kv2lXza8o9tSoSRn82gL-7" value="内存" style="text;html=1;strokeColor=none;fillColor=none;align=center;verticalAlign=middle;whiteSpace=wrap;rounded=0;fontSize=16;" vertex="1" parent="1">
          <mxGeometry x="-82.89" y="370" width="60" height="30" as="geometry" />
        </mxCell>
        <mxCell id="kv2lXza8o9tSoSRn82gL-8" value="磁盘" style="text;html=1;strokeColor=none;fillColor=none;align=center;verticalAlign=middle;whiteSpace=wrap;rounded=0;fontSize=16;" vertex="1" parent="1">
          <mxGeometry x="-97.88999999999999" y="530" width="60" height="30" as="geometry" />
        </mxCell>
        <mxCell id="kv2lXza8o9tSoSRn82gL-27" value="缓存命中?" style="rhombus;whiteSpace=wrap;html=1;fontSize=16;" vertex="1" parent="1">
          <mxGeometry x="40" y="340" width="120" height="40" as="geometry" />
        </mxCell>
        <mxCell id="kv2lXza8o9tSoSRn82gL-30" value="" style="whiteSpace=wrap;html=1;shape=mxgraph.basic.document;fontSize=16;" vertex="1" parent="1">
          <mxGeometry x="85" y="496.5" width="30" height="47" as="geometry" />
        </mxCell>
        <mxCell id="kv2lXza8o9tSoSRn82gL-31" value="" style="endArrow=classic;html=1;rounded=0;fontSize=12;startSize=8;endSize=8;curved=1;exitX=0.6;exitY=1;exitDx=0;exitDy=0;exitPerimeter=0;" edge="1" parent="1" source="kv2lXza8o9tSoSRn82gL-12" target="kv2lXza8o9tSoSRn82gL-27">
          <mxGeometry relative="1" as="geometry">
            <mxPoint x="-300" y="290" as="sourcePoint" />
            <mxPoint x="-200" y="290" as="targetPoint" />
          </mxGeometry>
        </mxCell>
        <mxCell id="kv2lXza8o9tSoSRn82gL-32" value="查询缓存" style="edgeLabel;resizable=0;html=1;align=center;verticalAlign=middle;fontSize=16;" connectable="0" vertex="1" parent="kv2lXza8o9tSoSRn82gL-31">
          <mxGeometry relative="1" as="geometry">
            <mxPoint y="-20" as="offset" />
          </mxGeometry>
        </mxCell>
        <mxCell id="kv2lXza8o9tSoSRn82gL-33" value="" style="endArrow=classic;html=1;rounded=0;fontSize=12;startSize=8;endSize=8;curved=1;exitX=0.5;exitY=1;exitDx=0;exitDy=0;" edge="1" parent="1" source="kv2lXza8o9tSoSRn82gL-27">
          <mxGeometry relative="1" as="geometry">
            <mxPoint x="99.58" y="393" as="sourcePoint" />
            <mxPoint x="100" y="480" as="targetPoint" />
          </mxGeometry>
        </mxCell>
        <mxCell id="kv2lXza8o9tSoSRn82gL-34" value="未命中：查询数据库" style="edgeLabel;resizable=0;html=1;align=center;verticalAlign=middle;fontSize=16;" connectable="0" vertex="1" parent="kv2lXza8o9tSoSRn82gL-33">
          <mxGeometry relative="1" as="geometry" />
        </mxCell>
        <mxCell id="kv2lXza8o9tSoSRn82gL-35" value="" style="endArrow=classic;html=1;rounded=0;fontSize=12;startSize=8;endSize=8;curved=1;exitX=1;exitY=0.5;exitDx=0;exitDy=0;" edge="1" parent="1" source="kv2lXza8o9tSoSRn82gL-27">
          <mxGeometry relative="1" as="geometry">
            <mxPoint x="320" y="350" as="sourcePoint" />
            <mxPoint x="160" y="240" as="targetPoint" />
          </mxGeometry>
        </mxCell>
        <mxCell id="kv2lXza8o9tSoSRn82gL-36" value="命中：直接返回" style="edgeLabel;resizable=0;html=1;align=center;verticalAlign=middle;fontSize=16;" connectable="0" vertex="1" parent="kv2lXza8o9tSoSRn82gL-35">
          <mxGeometry relative="1" as="geometry">
            <mxPoint as="offset" />
          </mxGeometry>
        </mxCell>
        <mxCell id="kv2lXza8o9tSoSRn82gL-37" value="" style="endArrow=classic;html=1;rounded=0;fontSize=12;startSize=8;endSize=8;entryX=1;entryY=0.5;entryDx=0;entryDy=0;edgeStyle=orthogonalEdgeStyle;" edge="1" parent="1" target="kv2lXza8o9tSoSRn82gL-12">
          <mxGeometry relative="1" as="geometry">
            <mxPoint x="240" y="520" as="sourcePoint" />
            <mxPoint x="340" y="520" as="targetPoint" />
            <Array as="points">
              <mxPoint x="440" y="520" />
              <mxPoint x="440" y="200" />
            </Array>
          </mxGeometry>
        </mxCell>
        <mxCell id="kv2lXza8o9tSoSRn82gL-38" value="返回查询结果" style="edgeLabel;resizable=0;html=1;align=center;verticalAlign=middle;fontSize=16;" connectable="0" vertex="1" parent="kv2lXza8o9tSoSRn82gL-37">
          <mxGeometry relative="1" as="geometry">
            <mxPoint y="-90" as="offset" />
          </mxGeometry>
        </mxCell>
        <mxCell id="kv2lXza8o9tSoSRn82gL-39" value="" style="endArrow=classic;html=1;rounded=0;fontSize=12;startSize=8;endSize=8;curved=1;entryX=1;entryY=0.5;entryDx=0;entryDy=0;" edge="1" parent="1" target="kv2lXza8o9tSoSRn82gL-4">
          <mxGeometry relative="1" as="geometry">
            <mxPoint x="440" y="360" as="sourcePoint" />
            <mxPoint x="620" y="410" as="targetPoint" />
          </mxGeometry>
        </mxCell>
        <mxCell id="kv2lXza8o9tSoSRn82gL-40" value="查询结果放入缓存" style="edgeLabel;resizable=0;html=1;align=center;verticalAlign=middle;fontSize=16;" connectable="0" vertex="1" parent="kv2lXza8o9tSoSRn82gL-39">
          <mxGeometry relative="1" as="geometry" />
        </mxCell>
        <mxCell id="kv2lXza8o9tSoSRn82gL-42" value="应用程序" style="text;html=1;strokeColor=none;fillColor=none;align=center;verticalAlign=middle;whiteSpace=wrap;rounded=0;fontSize=16;" vertex="1" parent="1">
          <mxGeometry x="-110" y="210" width="100" height="30" as="geometry" />
        </mxCell>
        <mxCell id="kv2lXza8o9tSoSRn82gL-43" value="" style="sketch=0;outlineConnect=0;fontColor=#232F3E;gradientColor=none;fillColor=#232F3D;strokeColor=none;dashed=0;verticalLabelPosition=bottom;verticalAlign=top;align=center;html=1;fontSize=12;fontStyle=0;aspect=fixed;pointerEvents=1;shape=mxgraph.aws4.generic_application;" vertex="1" parent="1">
          <mxGeometry x="-80" y="170" width="40" height="40" as="geometry" />
        </mxCell>
      </root>
    </mxGraphModel>
  </diagram>
</mxfile>
